<?xml version="1.0" encoding="UTF-8"?>
<svg id="Layer_1" xmlns="http://www.w3.org/2000/svg" version="1.1" viewBox="0 0 1701.9 522.2">
  <!-- Generator: Adobe Illustrator 29.5.1, SVG Export Plug-In . SVG Version: 2.1.0 Build 141)  -->
  <defs>
    <style>
      .st0 {
        fill: #8c8985;
      }

      .st1 {
        fill: #0068c7;
      }
    </style>
  </defs>
  <g>
    <polygon class="st0" points="28.3 41 119.2 414.6 132.8 414.6 41.9 41 28.3 41"/>
    <polygon class="st0" points="362.6 414.6 375.2 414.6 415.2 188 402.6 188 362.6 414.6"/>
    <polygon class="st0" points="533.2 414.6 545.8 414.6 585.8 188 573.2 188 533.2 414.6"/>
    <polygon class="st0" points="677.2 322.6 670.7 359.8 701.5 486.5 716.2 486.5 677.2 322.6"/>
    <polygon class="st0" points="205.4 243.6 209 258.5 210.3 258.5 284 105 271.9 105 205.4 243.6"/>
    <polygon class="st0" points="756 104.8 740.2 104.8 707 154.5 701.7 184.8 702.5 184.8 756 104.8"/>
  </g>
  <g>
    <polygon class="st1" points="297.6 105 205.1 297.6 142.7 41 52.2 41 143.1 414.5 149 414.5 233.6 414.5 239.5 414.5 388.1 105 297.6 105"/>
    <polygon class="st1" points="859.5 104.8 769 104.8 695.6 214.4 685 214.4 704.3 105 634.7 105 600.3 176.7 558.3 414.9 649.6 414.9 671.4 291.5 681.6 291.5 729 486.5 819.5 486.5 762.4 249.9 859.5 104.8"/>
    <polygon class="st1" points="620.8 105 402 105 367.4 177 429.7 177 387.8 414.5 469.1 414.5 511 177 586.2 177 620.8 105"/>
  </g>
  <path class="st0" d="M857.4,400.4c-17.9,0-33.2-13.7-33.2-31.6s15-32.3,33.2-32.3,32.6,14,32.6,31.9-15,32-32.6,32Z"/>
  <g>
    <path class="st0" d="M910.3,287.8h44.9l15.7,85.5h.6l35.3-85.5h46l13.2,85.5h.6l37.6-85.5h42.6l-67.6,136.3h-41.5l-15.7-90.6h-.6l-37.9,90.6h-42.3l-30.8-136.3Z"/>
    <path class="st0" d="M1229.1,407h-.6c-11.5,14.6-29.2,20.5-46.3,20.5-25.5,0-46.3-14.6-42.6-42.1,6.7-47.1,63.9-47.9,99-47.9,2.2-14.9-8.7-24.4-23.3-24.4s-26.1,6.2-36.5,16.3l-19.3-23c17.4-14.6,40.9-21.9,63.1-21.9,49.1,0,58.6,25,52.4,70.4l-9.8,69.3h-38.7l2.5-17.1ZM1224.7,364.4c-12.9,0-41.8,1.1-44.3,19.6-1.4,10.1,8.7,14.9,17.9,14.9,16.5,0,33.1-8.7,35.3-25.5l1.4-9h-10.4Z"/>
    <path class="st0" d="M1382.2,327.9c-5-7.6-12.6-11.5-22.7-11.5s-16,3.1-17.1,11.2c-2.8,20.2,70.7,3.1,63.4,55-5,34.8-40.1,44.9-69.3,44.9s-39.3-4.8-50.8-18.5l29.4-28.3c6.5,9.5,14.9,14.9,27.5,14.9s19.6-2.5,20.5-9.8c3.1-21.9-70.4-3.4-63.1-55.2,4.5-32,35.1-46,63.7-46s37.3,4.5,47.9,17.9l-29.4,25.5Z"/>
    <path class="st0" d="M1440.6,287.8h40.4l-2.5,18.5h.6c7-10.7,22.4-21.9,42.9-21.9s33.6,7.9,38.7,24.4c12.1-17.4,26.4-24.4,46.5-24.4,37,0,44.6,26.1,39.8,59.2l-11.2,80.5h-42.1l11.2-79.4c1.7-12.6-1.7-23.3-15.4-23.3s-27.2,13.7-29.7,30.6l-10.1,72.1h-42.1l10.1-72.1c1.4-10.1,4.8-30.6-14.6-30.6s-27.5,17.1-30,34.8l-9.5,67.9h-42.1l19.1-136.3Z"/>
  </g>
</svg>