<?xml version="1.0" encoding="UTF-8"?>
<svg id="Layer_1" data-name="Layer 1" xmlns="http://www.w3.org/2000/svg" viewBox="0 0 799.02 428.3">
  <defs>
    <style>
      .cls-1 {
        fill: #8c8985;
      }

      .cls-1, .cls-2 {
        stroke-width: 0px;
      }

      .cls-2 {
        fill: #0068c7;
      }
    </style>
  </defs>
  <g>
    <polygon class="cls-1" points="0 0 87.37 359.13 100.4 359.13 13.03 0 0 0"/>
    <polygon class="cls-1" points="321.36 359.13 333.5 359.13 371.91 141.27 359.77 141.27 321.36 359.13"/>
    <polygon class="cls-1" points="485.37 359.13 497.51 359.13 535.92 141.27 523.78 141.27 485.37 359.13"/>
    <polygon class="cls-1" points="623.83 270.74 617.53 306.45 647.18 428.3 661.33 428.3 623.83 270.74"/>
    <polygon class="cls-1" points="170.21 194.8 173.69 209.12 174.97 209.12 245.8 61.53 234.16 61.53 170.21 194.8"/>
    <polygon class="cls-1" points="699.55 61.33 684.39 61.33 652.45 109.07 647.3 138.27 648.07 138.27 699.55 61.33"/>
  </g>
  <g>
    <polygon class="cls-2" points="258.83 61.52 169.97 246.68 109.95 0 22.96 0 110.31 359.07 116.03 359.07 197.31 359.07 203.02 359.07 345.82 61.52 258.83 61.52"/>
    <polygon class="cls-2" points="799.02 61.32 712.03 61.32 641.5 166.72 631.27 166.72 649.82 61.52 582.95 61.52 549.88 130.43 509.49 359.46 597.28 359.46 618.2 240.85 627.98 240.85 673.58 428.3 760.58 428.3 705.66 200.86 799.02 61.32"/>
    <polygon class="cls-2" points="569.54 61.52 359.23 61.52 326.01 130.75 385.84 130.75 345.58 359.07 423.75 359.07 464.01 130.75 536.32 130.75 569.54 61.52"/>
  </g>
</svg>